<svg width="228" height="42" viewBox="0 0 228 42" fill="none" xmlns="http://www.w3.org/2000/svg">
<path d="M122.096 0.266434H223.265C225.334 0.266434 226.899 2.1409 226.528 4.17723L221.1 34.0336C220.813 35.6109 219.439 36.7575 217.836 36.7575H114.449L122.096 0.266434Z" fill="#0F0F0F"/>
<path d="M127.512 26.1682V11.6924H133.492C134.576 11.6924 135.511 11.9045 136.298 12.3286C137.09 12.748 137.7 13.3346 138.129 14.0886C138.558 14.8378 138.772 15.7096 138.772 16.7038C138.772 17.7028 138.553 18.5769 138.115 19.3262C137.681 20.0707 137.062 20.6479 136.256 21.0579C135.45 21.4678 134.494 21.6728 133.386 21.6728H129.697V18.9162H132.736C133.264 18.9162 133.704 18.8243 134.058 18.6405C134.416 18.4568 134.687 18.1999 134.871 17.8701C135.054 17.5355 135.146 17.1468 135.146 16.7038C135.146 16.2562 135.054 15.8698 134.871 15.5446C134.687 15.2148 134.416 14.9603 134.058 14.7813C133.7 14.6022 133.259 14.5127 132.736 14.5127H131.011V26.1682H127.512ZM140.497 26.1682V15.3114H143.854V17.2905H143.967C144.165 16.5742 144.488 16.0418 144.936 15.6931C145.383 15.3397 145.904 15.1629 146.498 15.1629C146.658 15.1629 146.823 15.1747 146.993 15.1983C147.162 15.2171 147.32 15.2478 147.466 15.2902V18.2942C147.301 18.2376 147.084 18.1929 146.816 18.1599C146.552 18.1269 146.316 18.1104 146.109 18.1104C145.699 18.1104 145.329 18.2023 144.999 18.3861C144.674 18.5651 144.417 18.8172 144.229 19.1424C144.045 19.4628 143.953 19.8398 143.953 20.2733V26.1682H140.497ZM153.379 26.3732C152.238 26.3732 151.258 26.14 150.438 25.6735C149.623 25.2022 148.994 24.5472 148.551 23.7085C148.113 22.865 147.894 21.8872 147.894 20.7751C147.894 19.6584 148.113 18.6806 148.551 17.8418C148.994 16.9983 149.623 16.3433 150.438 15.8768C151.258 15.4056 152.238 15.17 153.379 15.17C154.519 15.17 155.497 15.4056 156.312 15.8768C157.132 16.3433 157.761 16.9983 158.199 17.8418C158.642 18.6806 158.864 19.6584 158.864 20.7751C158.864 21.8872 158.642 22.865 158.199 23.7085C157.761 24.5472 157.132 25.2022 156.312 25.6735C155.497 26.14 154.519 26.3732 153.379 26.3732ZM153.4 23.765C153.815 23.765 154.166 23.6378 154.453 23.3833C154.741 23.1289 154.96 22.7755 155.11 22.3231C155.266 21.8707 155.344 21.3477 155.344 20.7539C155.344 20.1508 155.266 19.623 155.11 19.1707C154.96 18.7183 154.741 18.3649 154.453 18.1104C154.166 17.856 153.815 17.7287 153.4 17.7287C152.971 17.7287 152.608 17.856 152.311 18.1104C152.019 18.3649 151.795 18.7183 151.64 19.1707C151.489 19.623 151.414 20.1508 151.414 20.7539C151.414 21.3477 151.489 21.8707 151.64 22.3231C151.795 22.7755 152.019 23.1289 152.311 23.3833C152.608 23.6378 152.971 23.765 153.4 23.765ZM160.634 15.3114H164.091V26.6206C164.091 27.5159 163.907 28.2275 163.539 28.7552C163.177 29.283 162.663 29.6623 161.998 29.8932C161.334 30.1241 160.55 30.2396 159.645 30.2396C159.522 30.2396 159.407 30.2372 159.298 30.2325C159.19 30.2278 159.072 30.2231 158.945 30.2183V27.596C159.03 27.6054 159.105 27.6125 159.171 27.6172C159.237 27.6219 159.303 27.6243 159.369 27.6243C159.845 27.6243 160.175 27.5348 160.359 27.3557C160.542 27.1813 160.634 26.9128 160.634 26.5499V15.3114ZM162.359 14.0462C161.874 14.0462 161.457 13.886 161.108 13.5655C160.759 13.2404 160.585 12.8493 160.585 12.3922C160.585 11.9398 160.759 11.5534 161.108 11.233C161.457 10.9079 161.874 10.7453 162.359 10.7453C162.849 10.7453 163.266 10.9079 163.61 11.233C163.959 11.5534 164.133 11.9398 164.133 12.3922C164.133 12.8493 163.959 13.2404 163.61 13.5655C163.266 13.886 162.849 14.0462 162.359 14.0462ZM171.366 26.3732C170.23 26.3732 169.25 26.1494 168.425 25.7017C167.605 25.2494 166.974 24.6061 166.531 23.7721C166.093 22.9333 165.874 21.9367 165.874 20.7822C165.874 19.6607 166.095 18.6806 166.538 17.8418C166.981 16.9983 167.605 16.3433 168.411 15.8768C169.217 15.4056 170.166 15.17 171.26 15.17C172.032 15.17 172.739 15.2902 173.38 15.5305C174.021 15.7708 174.575 16.1266 175.041 16.5978C175.508 17.069 175.871 17.651 176.13 18.3437C176.389 19.0316 176.518 19.8209 176.518 20.7115V21.5739H167.082V19.5665H173.302C173.298 19.1989 173.211 18.8714 173.041 18.584C172.871 18.2965 172.638 18.0727 172.341 17.9125C172.049 17.7476 171.712 17.6651 171.33 17.6651C170.944 17.6651 170.598 17.7523 170.291 17.9266C169.985 18.0963 169.742 18.3295 169.563 18.6264C169.384 18.9186 169.29 19.2508 169.281 19.623V21.6657C169.281 22.1087 169.368 22.4974 169.542 22.832C169.716 23.1619 169.964 23.4187 170.284 23.6025C170.605 23.7862 170.986 23.8781 171.429 23.8781C171.736 23.8781 172.014 23.8357 172.263 23.7509C172.513 23.6661 172.728 23.5412 172.907 23.3763C173.086 23.2113 173.22 23.0087 173.309 22.7684L176.483 22.8603C176.351 23.5718 176.061 24.1915 175.614 24.7192C175.171 25.2423 174.589 25.6499 173.868 25.942C173.147 26.2295 172.313 26.3732 171.366 26.3732ZM183.352 26.3732C182.207 26.3732 181.224 26.1376 180.404 25.6664C179.589 25.1952 178.962 24.5402 178.524 23.7014C178.086 22.8579 177.867 21.8825 177.867 20.7751C177.867 19.6631 178.086 18.6877 178.524 17.8489C178.967 17.0054 179.596 16.3481 180.411 15.8768C181.231 15.4056 182.209 15.17 183.345 15.17C184.348 15.17 185.222 15.3514 185.967 15.7143C186.716 16.0771 187.301 16.5907 187.72 17.2552C188.144 17.9149 188.368 18.69 188.391 19.5806H185.161C185.095 19.0246 184.907 18.5887 184.596 18.273C184.289 17.9573 183.889 17.7994 183.394 17.7994C182.994 17.7994 182.643 17.9125 182.341 18.1387C182.039 18.3602 181.804 18.69 181.634 19.1282C181.469 19.5618 181.387 20.099 181.387 20.7398C181.387 21.3807 181.469 21.9226 181.634 22.3655C181.804 22.8037 182.039 23.1359 182.341 23.3621C182.643 23.5836 182.994 23.6943 183.394 23.6943C183.715 23.6943 183.997 23.626 184.242 23.4894C184.492 23.3527 184.697 23.1524 184.857 22.8886C185.017 22.62 185.119 22.2948 185.161 21.9131H188.391C188.358 22.8085 188.135 23.5907 187.72 24.2598C187.31 24.9289 186.733 25.4496 185.988 25.8219C185.248 26.1894 184.37 26.3732 183.352 26.3732ZM196.288 15.3114V17.856H189.439V15.3114H196.288ZM190.874 12.7103H194.33V22.7543C194.33 22.9663 194.363 23.1383 194.429 23.2702C194.5 23.3975 194.601 23.4894 194.733 23.5459C194.865 23.5977 195.023 23.6237 195.207 23.6237C195.339 23.6237 195.478 23.6119 195.624 23.5883C195.775 23.56 195.888 23.5365 195.963 23.5176L196.486 26.0127C196.321 26.0599 196.088 26.1188 195.787 26.1894C195.49 26.2601 195.134 26.3049 194.719 26.3237C193.909 26.3614 193.214 26.2672 192.634 26.041C192.059 25.8101 191.619 25.452 191.312 24.9666C191.011 24.4813 190.865 23.871 190.874 23.1359V12.7103ZM207.394 18.6264L204.221 18.7112C204.188 18.485 204.098 18.2848 203.952 18.1104C203.806 17.9314 203.615 17.7923 203.38 17.6934C203.149 17.5897 202.88 17.5379 202.574 17.5379C202.173 17.5379 201.832 17.618 201.549 17.7782C201.271 17.9384 201.134 18.1552 201.139 18.4285C201.134 18.6405 201.219 18.8243 201.393 18.9798C201.573 19.1353 201.891 19.2602 202.348 19.3544L204.44 19.7503C205.524 19.9576 206.329 20.3016 206.857 20.7822C207.39 21.2629 207.658 21.899 207.663 22.6906C207.658 23.4352 207.437 24.0831 206.999 24.6344C206.565 25.1857 205.971 25.6146 205.217 25.9208C204.463 26.2224 203.601 26.3732 202.63 26.3732C201.08 26.3732 199.857 26.0551 198.962 25.419C198.071 24.7781 197.562 23.9205 197.435 22.8461L200.849 22.7613C200.925 23.1572 201.12 23.4587 201.436 23.6661C201.752 23.8734 202.154 23.9771 202.645 23.9771C203.087 23.9771 203.448 23.8946 203.726 23.7297C204.004 23.5648 204.145 23.3456 204.15 23.0723C204.145 22.8273 204.037 22.6317 203.825 22.4857C203.613 22.3349 203.281 22.2171 202.828 22.1323L200.934 21.7718C199.845 21.5739 199.035 21.2087 198.503 20.6762C197.97 20.139 197.706 19.4557 197.711 18.6264C197.706 17.9007 197.899 17.2811 198.29 16.7674C198.682 16.2491 199.238 15.8533 199.959 15.58C200.68 15.3067 201.53 15.17 202.51 15.17C203.98 15.17 205.14 15.4787 205.988 16.096C206.836 16.7085 207.305 17.552 207.394 18.6264Z" fill="white"/>
<path d="M7.83992 2.83677C8.18769 1.3321 9.52775 0.266434 11.0721 0.266434H124.401L115.967 36.7575H4.17155C2.03774 36.7575 0.458875 34.7721 0.939385 32.6931L7.83992 2.83677Z" fill="#FF5900"/>
<path d="M31.1368 16.9371H27.6027C27.5556 16.5742 27.459 16.2467 27.3129 15.9546C27.1668 15.6624 26.9736 15.4127 26.7333 15.2054C26.493 14.998 26.2079 14.8402 25.8781 14.7318C25.5529 14.6187 25.1924 14.5621 24.7966 14.5621C24.0945 14.5621 23.489 14.7341 22.9801 15.0781C22.4759 15.4221 22.0871 15.9193 21.8138 16.5695C21.5452 17.2198 21.4109 18.0067 21.4109 18.9303C21.4109 19.8916 21.5476 20.6974 21.8209 21.3477C22.0989 21.9932 22.4876 22.481 22.9871 22.8108C23.4913 23.1359 24.0874 23.2985 24.7754 23.2985C25.1618 23.2985 25.5129 23.249 25.8286 23.1501C26.149 23.0511 26.4294 22.9074 26.6697 22.7189C26.9147 22.5257 27.115 22.2925 27.2705 22.0192C27.4307 21.7411 27.5415 21.4278 27.6027 21.0791L31.1368 21.1003C31.0756 21.7411 30.8895 22.3726 30.5785 22.9946C30.2722 23.6166 29.8504 24.1844 29.3132 24.698C28.776 25.2069 28.1211 25.6122 27.3483 25.9138C26.5802 26.2154 25.699 26.3661 24.7047 26.3661C23.3947 26.3661 22.2214 26.0787 21.1847 25.5038C20.1528 24.9242 19.3376 24.0807 18.7391 22.9734C18.1407 21.866 17.8414 20.5183 17.8414 18.9303C17.8414 17.3376 18.1454 15.9876 18.7533 14.8802C19.3611 13.7729 20.1834 12.9317 21.2201 12.3568C22.2568 11.782 23.4183 11.4945 24.7047 11.4945C25.5812 11.4945 26.3917 11.617 27.1362 11.8621C27.8807 12.1024 28.5357 12.4558 29.1012 12.9223C29.6666 13.3841 30.1261 13.9519 30.4795 14.6258C30.8329 15.2996 31.052 16.07 31.1368 16.9371ZM33.1389 26.1682V15.3114H36.5953V26.1682H33.1389ZM34.8707 14.0462C34.3853 14.0462 33.9683 13.886 33.6196 13.5655C33.2709 13.2404 33.0965 12.8493 33.0965 12.3922C33.0965 11.9398 33.2709 11.5534 33.6196 11.233C33.9683 10.9079 34.3853 10.7453 34.8707 10.7453C35.3607 10.7453 35.7777 10.9079 36.1217 11.233C36.4704 11.5534 36.6448 11.9398 36.6448 12.3922C36.6448 12.8493 36.4704 13.2404 36.1217 13.5655C35.7777 13.886 35.3607 14.0462 34.8707 14.0462ZM44.9235 15.3114V17.856H38.0743V15.3114H44.9235ZM39.5092 12.7103H42.9656V22.7543C42.9656 22.9663 42.9986 23.1383 43.0645 23.2702C43.1352 23.3975 43.2365 23.4894 43.3685 23.5459C43.5004 23.5977 43.6583 23.6237 43.842 23.6237C43.974 23.6237 44.113 23.6119 44.2591 23.5883C44.4099 23.56 44.523 23.5365 44.5983 23.5176L45.1214 26.0127C44.9565 26.0599 44.7232 26.1188 44.4216 26.1894C44.1248 26.2601 43.769 26.3049 43.3543 26.3237C42.5438 26.3614 41.8488 26.2672 41.2692 26.041C40.6943 25.8101 40.2537 25.452 39.9474 24.9666C39.6459 24.4813 39.4998 23.871 39.5092 23.1359V12.7103ZM49.7476 26.352C49.0549 26.352 48.4399 26.2366 47.9028 26.0057C47.3703 25.7701 46.9485 25.4166 46.6375 24.9454C46.3312 24.4695 46.1781 23.8734 46.1781 23.1572C46.1781 22.554 46.2841 22.0451 46.4962 21.6304C46.7082 21.2157 47.0004 20.8788 47.3726 20.6196C47.7449 20.3605 48.1737 20.1649 48.6591 20.033C49.1444 19.8963 49.6628 19.8044 50.2141 19.7573C50.8314 19.7008 51.3285 19.6419 51.7055 19.5806C52.0825 19.5146 52.3558 19.4228 52.5254 19.305C52.6998 19.1824 52.7869 19.0104 52.7869 18.789V18.7536C52.7869 18.3908 52.6621 18.1104 52.4123 17.9125C52.1626 17.7146 51.8256 17.6156 51.4015 17.6156C50.9445 17.6156 50.5769 17.7146 50.2989 17.9125C50.0209 18.1104 49.8442 18.3837 49.7688 18.7324L46.581 18.6193C46.6752 17.9596 46.9179 17.3706 47.309 16.8523C47.7048 16.3292 48.2467 15.9193 48.9347 15.6224C49.6274 15.3208 50.4591 15.17 51.4298 15.17C52.1225 15.17 52.761 15.2525 53.3453 15.4174C53.9296 15.5776 54.4385 15.8132 54.8721 16.1242C55.3056 16.4305 55.6401 16.8075 55.8758 17.2552C56.1161 17.7028 56.2362 18.2141 56.2362 18.789V26.1682H52.9848V24.6556H52.9C52.7068 25.0232 52.4594 25.3342 52.1579 25.5886C51.861 25.8431 51.5099 26.0339 51.1047 26.1612C50.7041 26.2884 50.2518 26.352 49.7476 26.352ZM50.8149 24.0902C51.1871 24.0902 51.5217 24.0148 51.8186 23.864C52.1202 23.7132 52.3605 23.5059 52.5395 23.242C52.7186 22.9734 52.8081 22.6624 52.8081 22.309V21.277C52.7092 21.3288 52.589 21.376 52.4477 21.4184C52.311 21.4608 52.1602 21.5008 51.9953 21.5385C51.8304 21.5762 51.6607 21.6092 51.4864 21.6375C51.312 21.6657 51.1447 21.6917 50.9845 21.7152C50.6594 21.7671 50.3814 21.8472 50.1505 21.9555C49.9243 22.0639 49.7499 22.2053 49.6274 22.3796C49.5096 22.5493 49.4507 22.7519 49.4507 22.9875C49.4507 23.3456 49.5779 23.6189 49.8324 23.8074C50.0916 23.9959 50.4191 24.0902 50.8149 24.0902ZM62.3149 26.3237C61.5139 26.3237 60.7858 26.1164 60.1308 25.7017C59.4759 25.2871 58.9528 24.665 58.5617 23.8357C58.1706 23.0064 57.975 21.9768 57.975 20.7469C57.975 19.4699 58.1777 18.4191 58.5829 17.5944C58.9881 16.7698 59.5183 16.1596 60.1733 15.7638C60.833 15.3679 61.5421 15.17 62.3008 15.17C62.871 15.17 63.3587 15.269 63.7639 15.4669C64.1692 15.6601 64.5037 15.9098 64.7676 16.2161C65.0315 16.5224 65.2318 16.8405 65.3684 17.1703H65.4391V11.6924H68.8955V26.1682H65.4745V24.4082H65.3684C65.2224 24.7428 65.015 25.0562 64.7464 25.3483C64.4778 25.6405 64.1409 25.8761 63.7357 26.0551C63.3351 26.2342 62.8616 26.3237 62.3149 26.3237ZM63.5165 23.6307C63.9359 23.6307 64.2941 23.5129 64.5909 23.2773C64.8878 23.037 65.1163 22.7001 65.2765 22.2666C65.4368 21.833 65.5169 21.3241 65.5169 20.7398C65.5169 20.1461 65.4368 19.6348 65.2765 19.206C65.121 18.7772 64.8925 18.4473 64.5909 18.2164C64.2941 17.9855 63.9359 17.8701 63.5165 17.8701C63.0877 17.8701 62.7249 17.9879 62.428 18.2235C62.1312 18.4591 61.905 18.7913 61.7495 19.2201C61.5987 19.6489 61.5233 20.1555 61.5233 20.7398C61.5233 21.3241 61.601 21.833 61.7565 22.2666C61.9121 22.7001 62.1359 23.037 62.428 23.2773C62.7249 23.5129 63.0877 23.6307 63.5165 23.6307ZM76.1564 26.3732C75.0207 26.3732 74.0406 26.1494 73.216 25.7017C72.396 25.2494 71.7646 24.6061 71.3217 23.7721C70.8834 22.9333 70.6643 21.9367 70.6643 20.7822C70.6643 19.6607 70.8858 18.6806 71.3287 17.8418C71.7717 16.9983 72.396 16.3433 73.2018 15.8768C74.0076 15.4056 74.9571 15.17 76.0503 15.17C76.8231 15.17 77.53 15.2902 78.1708 15.5305C78.8117 15.7708 79.3654 16.1266 79.8319 16.5978C80.2984 17.069 80.6612 17.651 80.9204 18.3437C81.1795 19.0316 81.3091 19.8209 81.3091 20.7115V21.5739H71.873V19.5665H78.0931C78.0884 19.1989 78.0012 18.8714 77.8315 18.584C77.6619 18.2965 77.4287 18.0727 77.1318 17.9125C76.8396 17.7476 76.5027 17.6651 76.121 17.6651C75.7346 17.6651 75.3883 17.7523 75.082 17.9266C74.7757 18.0963 74.533 18.3295 74.354 18.6264C74.1749 18.9186 74.0807 19.2508 74.0712 19.623V21.6657C74.0712 22.1087 74.1584 22.4974 74.3328 22.832C74.5071 23.1619 74.7545 23.4187 75.0749 23.6025C75.3953 23.7862 75.777 23.8781 76.22 23.8781C76.5263 23.8781 76.8043 23.8357 77.054 23.7509C77.3038 23.6661 77.5182 23.5412 77.6972 23.3763C77.8763 23.2113 78.0106 23.0087 78.1001 22.7684L81.2738 22.8603C81.1418 23.5718 80.852 24.1915 80.4044 24.7192C79.9614 25.2423 79.3795 25.6499 78.6585 25.942C77.9376 26.2295 77.1035 26.3732 76.1564 26.3732ZM86.5308 11.6924V26.1682H83.0744V11.6924H86.5308Z" fill="white"/>
<path d="M99.554 18.9798L99.1228 21.6445H92.4291L92.8603 18.9798H99.554ZM100.807 26.1682L102.616 15.3114H106.073L104.263 26.1682H100.807ZM104.588 14.0391C104.098 14.0391 103.7 13.8765 103.394 13.5514C103.087 13.2262 102.967 12.8375 103.033 12.3851C103.099 11.928 103.33 11.5393 103.726 11.2189C104.122 10.8984 104.562 10.7382 105.048 10.7382C105.538 10.7382 105.931 10.8984 106.228 11.2189C106.53 11.5393 106.648 11.928 106.582 12.3851C106.525 12.8375 106.299 13.2262 105.903 13.5514C105.512 13.8765 105.074 14.0391 104.588 14.0391ZM114.599 18.9798L114.168 21.6445H107.474L107.905 18.9798H114.599Z" fill="white"/>
<rect y="38.4163" width="220.605" height="3.31737" rx="1.65869" fill="#0F0F0F"/>
</svg>
